<?xml version="1.0" encoding="utf-8"?>
<!-- Generator: Adobe Illustrator 23.0.3, SVG Export Plug-In . SVG Version: 6.00 Build 0)  -->
<svg version="1.1" xmlns="http://www.w3.org/2000/svg" xmlns:xlink="http://www.w3.org/1999/xlink" x="0px" y="0px"
	 viewBox="0 0 128 128" style="enable-background:new 0 0 128 128;" xml:space="preserve">
<style type="text/css">
	.st0{fill:#F2F2F2;}
	.st1{fill:#FFFFFF;}
	.st2{fill:#666666;}
</style>
<symbol  id="tile" viewBox="-32 -32 64 64">
	<rect x="-32" y="-32" class="st0" width="64" height="64"/>
	<path class="st1" d="M29-31h-58c-1.1,0-2,0.9-2,2v58c0,1.1,0.9,2,2,2h59.2c0.4,0,0.8-0.4,0.8-0.8V-29C31-30.1,30.1-31,29-31z"/>
</symbol>
<g id="Layer_2">
	<rect class="st0" width="128" height="128"/>
	<path class="st1" d="M125,127H3c-1.1,0-2-0.9-2-2V3c0-1.1,0.9-2,2-2h122c1.1,0,2,0.9,2,2v122C127,126.1,126.1,127,125,127z"/>
</g>
<g id="Layer_1">
	<path class="st2" d="M120,120H8c-0.6,0-1-0.4-1-1V8c0-0.6,0.4-1,1-1h112c0.6,0,1,0.4,1,1v111C121,119.6,120.6,120,120,120z"/>
	<rect x="9" y="9" class="st0" width="110" height="109"/>
</g>
</svg>
