<?xml version="1.0" encoding="utf-8"?>
<!-- Generator: Adobe Illustrator 23.0.3, SVG Export Plug-In . SVG Version: 6.00 Build 0)  -->
<svg version="1.1" id="Layer_1" xmlns="http://www.w3.org/2000/svg" xmlns:xlink="http://www.w3.org/1999/xlink" x="0px" y="0px"
	 viewBox="0 0 64 64" style="enable-background:new 0 0 64 64;" xml:space="preserve">
<style type="text/css">
	.st0{fill:#666666;}
	.st1{fill:#F2F2F2;}
	.st2{fill:#FFFFFF;}
</style>
<symbol  id="house_x5F_1" viewBox="-32 -32 64 64">
	<use xlink:href="#tile"  width="64" height="64" x="-32" y="-32" style="overflow:visible;"/>
	<path class="st0" d="M24-25h-48c-0.6,0-1,0.4-1,1v48c0,0.6,0.4,1,1,1h48c0.6,0,1-0.4,1-1v-48C25-24.6,24.6-25,24-25z"/>
	<rect x="-23" y="-23" class="st1" width="46" height="46"/>
</symbol>
<symbol  id="tile" viewBox="-32 -32 64 64">
	<rect x="-32" y="-32" class="st1" width="64" height="64"/>
	<path class="st2" d="M29-31h-58c-1.1,0-2,0.9-2,2v58c0,1.1,0.9,2,2,2h59.2c0.4,0,0.8-0.4,0.8-0.8V-29C31-30.1,30.1-31,29-31z"/>
</symbol>
<use xlink:href="#house_x5F_1"  width="64" height="64" x="-32" y="-32" transform="matrix(1 0 0 -1 32 32)" style="overflow:visible;"/>
</svg>
