<?xml version="1.0" encoding="utf-8"?>
<!-- Generator: Adobe Illustrator 23.0.3, SVG Export Plug-In . SVG Version: 6.00 Build 0)  -->
<svg version="1.1" id="Layer_1" xmlns="http://www.w3.org/2000/svg" xmlns:xlink="http://www.w3.org/1999/xlink" x="0px" y="0px"
	 viewBox="0 0 64 128" style="enable-background:new 0 0 64 128;" xml:space="preserve">
<style type="text/css">
	.st0{fill:#F2F2F2;}
	.st1{fill:#FFFFFF;}
	.st2{fill:#666666;}
</style>
<symbol  id="house_x5F_2" viewBox="-32 -64 64 128">
	<rect x="-32" y="-64" class="st0" width="64" height="128"/>
	<path class="st1" d="M29-63h-58c-1.1,0-2,0.9-2,2V61c0,1.1,0.9,2,2,2h59.2c0.4,0,0.8-0.4,0.8-0.8V-61C31-62.1,30.1-63,29-63z"/>
	<path class="st2" d="M24-57h-48c-0.6,0-1,0.4-1,1V56c0,0.6,0.4,1,1,1h48c0.6,0,1-0.4,1-1V-56C25-56.6,24.6-57,24-57z"/>
	<rect x="-23" y="-55" class="st0" width="46" height="110"/>
</symbol>
<use xlink:href="#house_x5F_2"  width="64" height="128" x="-32" y="-64" transform="matrix(1 0 0 -1 32 64)" style="overflow:visible;"/>
</svg>
