<?xml version="1.0" encoding="utf-8"?>
<!-- Generator: Adobe Illustrator 23.0.3, SVG Export Plug-In . SVG Version: 6.00 Build 0)  -->
<svg version="1.1" id="Layer_1" xmlns="http://www.w3.org/2000/svg" xmlns:xlink="http://www.w3.org/1999/xlink" x="0px" y="0px"
	 viewBox="0 0 64 64" style="enable-background:new 0 0 64 64;" xml:space="preserve">
<style type="text/css">
	.st0{fill:#F2F2F2;}
	.st1{fill:#FFFFFF;}
	.st2{fill:#F5EE9E;}
</style>
<symbol  id="tile" viewBox="-32 -32 64 64">
	<rect x="-32" y="-32" class="st0" width="64" height="64"/>
	<path class="st1" d="M29-31h-58c-1.1,0-2,0.9-2,2v58c0,1.1,0.9,2,2,2h59.2c0.4,0,0.8-0.4,0.8-0.8V-29C31-30.1,30.1-31,29-31z"/>
</symbol>
<rect class="st0" width="64" height="64"/>
<path class="st2" d="M61,63H3c-1.1,0-2-0.9-2-2V3c0-1.1,0.9-2,2-2h59.2C62.6,1,63,1.4,63,1.8V61C63,62.1,62.1,63,61,63z"/>
</svg>
